<?xml version="1.0" encoding="UTF-8"?>
<svg id="Layer_1" data-name="Layer 1" xmlns="http://www.w3.org/2000/svg" viewBox="0 0 1319 247">
  <defs>
    <style>
      .cls-1 {
        fill: #231f20;
      }
    </style>
  </defs>
  <path class="cls-1" d="m12.47,17.83h188.69c1.6,0,2.9,1.3,2.9,2.9v32.99c0,2.9-1.12,5.66-3.14,7.74-9.22,9.45-36,38.62-43.16,65.42-8.69,32.54-6.44,108.72-6.44,108.72H56.66s-5.49-53.15,27.75-111.86c17.66-31.2,45.78-57.54,53-64.68,1.19-1.17,1.86-2.77,1.87-4.44l.02-6.81c0-1.42-1.15-2.58-2.57-2.58H12.47v-27.41Z"/>
  <path class="cls-1" d="m524.96,56.21V21.57h113.44c9.01,0,16.32,7.31,16.32,16.32,0,0,1.51,15.39-1.69,37.05-3.2,21.65-17.38,74.11-34.58,97.09-22.7,30.34-54.45,53.62-89.93,56.43v-33.1c46.14-7.53,71.6-67.67,77.43-118.6.86-6.41,1.04-12.1,1.04-15.85,0-2.6-2.1-4.7-4.69-4.7h-77.33Zm230.32,28.72v30.42h-31.34v120.88h-48.54V9.57h48.54v75.37h31.34Z"/>
  <g>
    <rect class="cls-1" x="954.46" y="9.57" width="43.84" height="226.67"/>
    <polygon class="cls-1" points="852.94 54.03 853.57 54.03 942.2 54.03 942.2 21.32 791.81 21.32 791.81 54.03 811.02 54.03 810.89 190.68 788.81 190.8 788.81 226.51 939.01 226.51 939.01 190.8 919.72 190.8 919.72 70.16 877.5 70.16 877.5 190.8 852.94 190.8 852.94 54.03"/>
  </g>
  <path class="cls-1" d="m1150.39,112.15c-1.1-1.82-1.46-4-1.13-6.1l7.45-47.54c.19-1.18,1.2-2.05,2.4-2.05h40.51V22.05h-141.3v34.4h45.18c.6,0,1.07.49,1,1.08-.82,7.76-6.06,55.32-13.14,76.57-7.73,23.18-30.09,90.69-30.09,90.69h41.48c8.03-8.79,31-72.39,37.55-79.71,6.1-2.29,17.34,81.43,17.34,81.43h44.33c1.94-46.71-42.35-99.06-51.58-114.36Zm158.61-27.22v35.13h-36.05v116.17h-43.83V9.57h43.83v75.37h36.05Z"/>
  <g>
    <polygon class="cls-1" points="414.88 9.57 414.88 64.57 389.87 64.57 389.87 95.33 414.88 95.33 414.88 185.07 458.72 185.07 458.72 9.57 414.88 9.57"/>
    <path class="cls-1" d="m307.04,164.51h-49.24v52.68c0,10.52,8.53,19.04,19.04,19.04h181.55v-35.71h-151.36v-36.01Z"/>
  </g>
  <path class="cls-1" d="m338.18,22.63v36.63h-46.6V22.63h-40.37v120.51c0,3.88,3.15,7.03,7.03,7.03h34.64v-25.58c0-1.17,13.5,25.58,13.5,25.58h64.68c3.88,0,7.03-3.15,7.03-7.03V22.63h-39.91Zm0,92.8h-46.6v-23.13h46.6v23.13Z"/>
</svg>